<?xml version="1.0" encoding="UTF-8" standalone="no"?>
<!-- Created with Inkscape (http://www.inkscape.org/) -->
<svg width="128mm" height="128mm" viewBox="0 0 128 128" version="1.1" id="svg421" inkscape:version="1.1 (c68e22c387, 2021-05-23)" sodipodi:docname="Logo-Mairie.svg" xmlns:inkscape="http://www.inkscape.org/namespaces/inkscape" xmlns:sodipodi="http://sodipodi.sourceforge.net/DTD/sodipodi-0.dtd" xmlns="http://www.w3.org/2000/svg" xmlns:svg="http://www.w3.org/2000/svg">
  <sodipodi:namedview id="namedview423" pagecolor="#ffffff" bordercolor="#666666" borderopacity="1.0" inkscape:pageshadow="2" inkscape:pageopacity="0.0" inkscape:pagecheckerboard="0" inkscape:document-units="mm" showgrid="false" width="128mm" inkscape:zoom="0.50924418" inkscape:cx="242.51627" inkscape:cy="42.219432" inkscape:window-width="1280" inkscape:window-height="737" inkscape:window-x="-8" inkscape:window-y="-8" inkscape:window-maximized="1" inkscape:current-layer="layer1"/>
  <defs id="defs418">
    <linearGradient id="linearGradient3179" y2="349.89001" gradientUnits="userSpaceOnUse" x2="360.70999" y1="449.92999" x1="360.70999" gradientTransform="matrix(1.1893154,0,0,1.1353148,-418.83243,-391.2225)">
      <stop id="stop3171" stop-color="#fffefd" offset="0"/>
      <stop id="stop3181" stop-color="#e5dfda" offset=".5"/>
      <stop id="stop3173" stop-color="#a79583" offset="1"/>
    </linearGradient>
  </defs>
  <g inkscape:groupmode="layer" id="layer2" inkscape:label="Calque 2">
    <path id="path160" fill="url(#linearGradient1906) #000000" d="m 104.73732,4.661806 c -2.86065,0.615522 -5.721303,0.715265 -8.581953,-0.729471 -1e-5,5.684004 -1e-5,11.36719 -1e-5,17.051295 2.86065,1.444021 5.721303,1.344892 8.581953,0.728653 V 4.66201 Z" style="fill:#010c3e;fill-opacity:1;stroke-width:0.104598"/>
    <path id="path169" fill="url(#linearGradient1903) #000000" d="m 113.34421,19.341249 c 2.86054,-0.615216 5.72109,-0.714346 8.58163,0.729675 V 3.02065 C 119.0653,1.575506 116.20475,1.675248 113.34421,2.290771 v 17.050273 z" style="fill:#ed121a;fill-opacity:1;stroke-width:0.104598"/>
    <path style="fill:#ffffff;fill-opacity:1;stroke:none;stroke-width:0.264583px;stroke-linecap:butt;stroke-linejoin:miter;stroke-opacity:1" d="m 104.73732,4.661806 c 2.86739,-0.736047 8.60689,-2.371034 8.60689,-2.371034 0,0 0,17.050477 0,17.050477 l -8.6069,2.371035 z" id="path615"/>
    <path style="fill:#000000;fill-opacity:0.150407;stroke:none;stroke-width:0.264583px;stroke-linecap:butt;stroke-linejoin:miter;stroke-opacity:1" d="m 104.73732,4.661806 8.60689,-2.371034 -8.55548,10.157118 -8.633373,8.535739 1e-5,-17.051295 1.76931,0.868765 1.32464,0.240845 2.589073,0.06021 z" id="path1689"/>
    <g id="g2789">
      <rect style="fill:#808080;fill-opacity:1;stroke:none;stroke-width:1.23215;stroke-linecap:square" id="rect2392" width="2.6547298" height="56.352669" x="94.001564" y="3.2580774"/>
      <ellipse style="fill:#999999;fill-opacity:1;stroke:none;stroke-width:1.18007;stroke-linecap:square" id="path2705" cx="95.315079" cy="2.8960688" rx="2.4737253" ry="2.53406"/>
    </g>
  </g>
  <g inkscape:label="Calque 1" inkscape:groupmode="layer" id="layer1">
    <path id="rect2396" d="M 10.165524,57.147371 63.684717,6.0582048 117.20391,57.147371 V 119.58968 H 10.165524 Z" fill="url(#linearGradient3179) #000000" style="fill:url(#linearGradient3179);fill-opacity:1;stroke-width:1.162"/>
    <path id="path3219" d="M 10.165524,57.147371 63.684717,6.0582048 117.20391,57.147371 V 119.58968 H 10.165524 Z" fill="url(#linearGradient3231) #000000" style="fill:#f7e3da;fill-opacity:0.41964;stroke-width:1.162"/>
    <rect id="rect3235" height="6.8118887" width="107.03838" y="119.58968" x="10.165524" fill="url(#linearGradient3243) #000000" style="fill:#311f00;fill-opacity:1;stroke-width:1.162"/>
    <polyline id="_x3C_Slice_x3E_" points="0 256 0 0 256 0 256 256" fill="none" transform="matrix(0.10705623,0,0,0.10219536,48.712425,26.81403)"/>
    <path id="text2518" fill="#86837f" d="m 31.792586,63.046657 v -1.13374 h 1.618048 V 50.192971 h -1.618048 v -1.133742 h 5.248229 l 3.628743,8.974297 3.646002,-8.974297 h 5.238161 v 1.133742 h -1.626678 v 11.719946 h 1.626678 v 1.13374 h -6.542668 v -1.13374 h 1.619486 V 51.242166 l -3.945161,9.751838 h -2.15452 l -3.926464,-9.751838 v 10.670751 h 1.618048 v 1.13374 h -4.429856 m 28.195748,-6.117766 v 4.984026 h 1.295877 v 1.13374 h -4.31048 v -1.26541 c -0.3984,0.525291 -0.841386,0.911983 -1.328958,1.161462 -0.48901,0.249477 -1.045619,0.375603 -1.669826,0.375603 -0.926242,0 -1.638183,-0.271655 -2.1387,-0.814963 -0.493325,-0.550238 -0.740707,-1.333324 -0.740707,-2.352027 0,-1.118496 0.355253,-1.954249 1.064316,-2.510032 0.716257,-0.555783 1.792079,-0.834367 3.228906,-0.834367 h 1.584969 V 56.21649 c 0,-0.80526 -0.174031,-1.398466 -0.520652,-1.779613 -0.345185,-0.386691 -0.883096,-0.58073 -1.609419,-0.58073 -0.602634,0 -1.067193,0.137213 -1.396555,0.411639 -0.32361,0.268882 -0.553733,0.7124 -0.690368,1.330553 h -0.9622 v -2.145516 c 0.53935,-0.212057 1.098835,-0.371446 1.677018,-0.476781 0.57962,-0.106722 1.190883,-0.159389 1.83235,-0.159389 1.618048,0 2.80174,0.329866 3.552514,0.99237 0.755089,0.662504 1.131915,1.701998 1.131915,3.119868 m -3.014603,2.988197 V 57.92126 h -1.133354 c -0.562361,0 -0.993842,0.169092 -1.294438,0.505888 -0.302036,0.338182 -0.451617,0.821893 -0.451617,1.452519 0,0.630625 0.107872,1.101863 0.32361,1.415096 0.221494,0.311849 0.556609,0.468466 1.005349,0.468466 0.46456,0 0.839947,-0.169092 1.124723,-0.505886 0.283338,-0.338183 0.425727,-0.784472 0.425727,-1.340255 m 6.319736,-9.649273 c 0,-0.505888 0.159648,-0.93 0.477503,-1.273727 0.317857,-0.349271 0.707628,-0.525291 1.166433,-0.525291 0.44874,0 0.829879,0.17602 1.141983,0.525291 0.317856,0.343727 0.477504,0.767839 0.477504,1.273727 0,0.493412 -0.159648,0.914754 -0.477504,1.265409 -0.312104,0.34234 -0.693243,0.514203 -1.141983,0.514203 -0.458805,0 -0.848576,-0.171863 -1.166433,-0.514203 -0.317855,-0.343725 -0.477503,-0.765067 -0.477503,-1.265409 m 3.296503,11.645102 h 1.295877 v 1.13374 h -5.597728 v -1.13374 h 1.287249 v -7.692254 h -1.287249 v -1.132356 h 4.301851 v 8.82461 m 11.116351,-8.936875 v 2.968794 h -0.9622 c -0.03307,-0.530834 -0.163963,-0.924456 -0.391207,-1.179479 -0.227247,-0.263338 -0.556609,-0.393622 -0.988088,-0.393622 -0.658727,0 -1.179379,0.317393 -1.55908,0.954949 -0.38114,0.637557 -0.570991,1.520433 -0.570991,2.651402 v 3.934831 h 1.643936 v 1.13374 h -5.945788 v -1.13374 h 1.28581 v -7.692254 h -1.379296 v -1.132356 h 4.395338 v 1.769911 c 0.294844,-0.692995 0.684615,-1.205812 1.166434,-1.535678 0.489009,-0.338182 1.08589,-0.505887 1.789201,-0.505887 0.176906,0 0.389768,0.01525 0.638589,0.04574 0.256011,0.02495 0.547979,0.06237 0.877342,0.113657 m 1.431073,-2.708228 c 0,-0.505886 0.159647,-0.93 0.477504,-1.273726 0.317857,-0.34927 0.707627,-0.525291 1.167871,-0.525291 0.448739,0 0.828442,0.176021 1.140545,0.525291 0.317856,0.343726 0.477504,0.76784 0.477504,1.273726 0,0.493413 -0.159648,0.914755 -0.477504,1.265411 -0.312103,0.34234 -0.691806,0.514203 -1.140545,0.514203 -0.460244,0 -0.850014,-0.171863 -1.167871,-0.514203 -0.317857,-0.343727 -0.477504,-0.765068 -0.477504,-1.265411 m 3.297942,11.645103 h 1.294438 v 1.13374 h -5.596289 v -1.13374 h 1.285809 v -7.692254 h -1.285809 v -1.132356 h 4.301851 v 8.82461 m 8.7389,-4.487842 c 0,-1.311147 -0.110751,-2.230061 -0.33224,-2.753965 -0.221494,-0.530836 -0.598318,-0.796946 -1.131915,-0.796946 -0.517776,0 -0.888847,0.259182 -1.116094,0.777543 -0.221493,0.518359 -0.332239,1.387377 -0.332239,2.604277 v 0.169091 h 2.912488 m 3.313756,1.114338 h -6.226244 v 0.07623 c 0,1.2862 0.175469,2.2162 0.527843,2.791387 0.352375,0.568257 0.92049,0.852384 1.702905,0.852384 0.654412,0 1.182252,-0.191266 1.584968,-0.571027 0.402717,-0.381149 0.661601,-0.934158 0.77522,-1.659032 h 1.413817 c -0.244502,1.130968 -0.729199,1.961177 -1.456957,2.492012 -0.726325,0.530836 -1.743179,0.796946 -3.049124,0.796946 -1.567709,0 -2.771536,-0.45322 -3.611483,-1.358273 -0.835632,-0.911982 -1.25273,-2.212042 -1.25273,-3.897408 0,-1.64933 0.428603,-2.935529 1.287247,-3.859987 0.857206,-0.924456 2.049529,-1.385991 3.576966,-1.385991 1.49867,0 2.649281,0.486482 3.450392,1.460835 0.801111,0.967421 1.226838,2.389449 1.27718,4.261924" style="stroke-width:1.41188"/>
    <rect id="rect3260" height="4.5412593" width="28.54357" y="118.45437" x="49.412933" fill="#b3b3b3" style="stroke-width:1.162"/>
    <rect id="rect3256" height="2.2706296" width="26.164938" y="119.58968" x="50.602245" fill="#fffcf6" style="stroke-width:1.162"/>
    <rect id="rect3262" height="4.5412593" width="30.922201" y="121.86031" x="48.223618" fill="#b3b3b3" style="stroke-width:1.162"/>
    <rect id="rect3258" height="2.2706296" width="28.54357" y="122.99563" x="49.412933" fill="#fffcf6" style="stroke-width:1.162"/>
    <path id="path4108" style="fill:#5b5140;fill-opacity:1;fill-rule:evenodd;stroke-width:4.39181" d="M 240.69727 5.7324219 L 11.451172 220.28125 L 33.925781 241.73633 L 240.69727 48.642578 L 447.4707 241.73633 L 469.94531 220.28125 L 240.69727 5.7324219 z " transform="scale(0.26458333)"/>
    <rect style="fill:#bf6425;fill-opacity:1;stroke:#5e5e5e;stroke-width:2.187;stroke-linecap:square;stroke-miterlimit:4;stroke-dasharray:none;stroke-opacity:1" id="rect2835" width="27.07733" height="48.450237" x="50.333298" y="70.490036"/>
    <rect style="fill:#9dbebf;fill-opacity:1;stroke:none;stroke-width:1.52597;stroke-linecap:square;stroke-miterlimit:4;stroke-dasharray:none;stroke-opacity:1" id="rect4660" width="8.3250904" height="9.6258841" x="54.113087" y="74.665649"/>
    <rect style="fill:#9dbebf;fill-opacity:1;stroke:none;stroke-width:1.52597;stroke-linecap:square;stroke-miterlimit:4;stroke-dasharray:none;stroke-opacity:1" id="rect4660-5" width="8.3250904" height="9.6258841" x="64.025681" y="74.665649"/>
    <rect style="fill:#9dbebf;fill-opacity:1;stroke:none;stroke-width:1.52597;stroke-linecap:square;stroke-miterlimit:4;stroke-dasharray:none;stroke-opacity:1" id="rect4660-5-9" width="8.3250904" height="9.6258841" x="64.025681" y="86.307327"/>
    <rect style="fill:#9dbebf;fill-opacity:1;stroke:none;stroke-width:1.52597;stroke-linecap:square;stroke-miterlimit:4;stroke-dasharray:none;stroke-opacity:1" id="rect4660-5-9-3" width="8.3250904" height="9.6258841" x="54.113083" y="86.307327"/>
    <rect style="fill:#9dbebf;fill-opacity:1;stroke:none;stroke-width:1.52597;stroke-linecap:square;stroke-miterlimit:4;stroke-dasharray:none;stroke-opacity:1" id="rect4660-5-9-3-8" width="8.3250904" height="9.6258841" x="54.113083" y="97.520714"/>
    <rect style="fill:#9dbebf;fill-opacity:1;stroke:none;stroke-width:1.52597;stroke-linecap:square;stroke-miterlimit:4;stroke-dasharray:none;stroke-opacity:1" id="rect4660-5-9-3-8-2" width="8.3250904" height="9.6258841" x="64.167259" y="97.520714"/>
  </g>
  <g inkscape:groupmode="layer" id="layer3" inkscape:label="Calque 0">
    <path id="path3297" d="m 75.950924,96.736581 a 1.3641602,1.3022208 0 1 1 -2.72832,0 1.3641602,1.3022208 0 1 1 2.72832,0 z" stroke="url(#linearGradient3343) #000000" fill="url(#linearGradient3313) #000000" style="fill:#787878;fill-opacity:1;stroke:#9b4d18;stroke-width:0.959563;stroke-opacity:1"/>
  </g>
</svg>